<?xml version="1.0" encoding="UTF-8"?><svg id="b" xmlns="http://www.w3.org/2000/svg" viewBox="0 0 152.51 152.51"><defs><style>.e{fill:#002f4f;}.e,.f,.g,.h,.i{stroke-width:0px;}.f{fill:#3c69aa;}.g{fill:none;}.h{fill:#b6e2ff;}.i{fill:#86c3f4;}</style></defs><g id="c"><rect class="g" width="152.51" height="152.51"/><g id="d"><path class="f" d="M30.07,50.58c2.94.67,4.35.52,5.58-1.93.51-1.02.59-1.74,1.37-2.63,2.1-2.37,4.73-2.82,7.84-2.5.28.03.68.08.95.16,3.59.96,7.06,2.54,9.42,5.38,3.9,4.67,1.56,7.4-3.53,9.1-2.11.7-2.68,1.4-.97,3.13.38.39.82.7,1.29,1.03,6.49,4.5,13.57,7.88,20.69,11.22.13.06.19.07.27.12.07.05.05.02.11.06.06.03.27.11.32.14.73.31,2.48.19,2.97.06.5-.13.08-.04.27-.1.18-.06.25-.13.33-.17.06-.03.04-.02.03-.02.03,0,0,0,0,0,0,0,.02-.02.03-.02h.02s.04-.03.06-.04c3.66-2.11,7.45-4.3,11.28-6.05,3.19-1.45,6.4-3.05,9.79-3.51,4.03-.54,5.19,1.41,4.18,5.08-.31,1.14-1.03,2.42-1.07,3.62-.08,2,.8,3.09,2.86,3,2.37-.1,4.79-1.25,6.65-2.54,3.25-2.28,4.18-4.15,1.92-7.52-1.62-2.42-1.48-4.67.37-7.12,1.85-2.45,4.5-4.41,7.15-6.07,3.98-2.49,8.17-4.47,12.44-6.37-.56-.6-1.07-1.05-1.79-1.48-10.32-6.22-20.66-12.49-30.98-18.75v-.02c-.44-.07-1.29-.72-1.49-.88-.04-.03-.06-.05-.07-.06-5.26-3.83-10.94-6.68-16.52-9.96,0,0,.03.03-.06-.03s-.39-.25-.57-.35c-1.59-.9-3.16-1.57-5-1.64-.46-.02-.76-.02-1.23.08-1.41.29-2.48.73-3.77,1.56-6.15,3.89-12.54,7.65-18.83,11.44-10.14,6.12-20.3,12.31-30.42,18.43-.95.58-1.67,1.2-2.38,2.04.27.13.6.29.86.42,2.94,1.41,6.74,3.02,9.68,3.69h0Z"/><path class="h" d="M73.26,120.21c-.88-3.83-1.87-4.71-4.62-4.65-2.97.06-5.8-2.21-7.38-6.15-1.56-3.88-1.46-7.33-.7-9.88,1.45-4.89,5.21-4.42,9.28-.47,3.09,2.99,3.11,2.35,4.06-.16.16-.41.18-1.01.23-1.54.61-6.35.34-12.87-.19-19.54h-.1c-.05-.25,0-.2-.26-.61-.31-.49-.85-.7-1.67-1.06-6.35-2.79-13.11-5.96-19.02-9.69-2.64-1.67-5.02-3.24-6.65-5.78-1.37-2.14-.24-3.52,1.81-4.44.78-.35,2.07-.56,2.86-.83,1.9-.62,2.97-1.49,2.25-3.47-.55-1.51-2-2.7-3.23-3.49-1.69-1.1-3.5-2.24-5.4-2.32-3.09-.12-4.03,1.08-5.29,3.97s-4.12,3.86-7.55,3.44c-1.3-.16-3.15-.48-4.59-.96-2.9-.98-5.87-2.18-8.66-3.52-.02.14,0-.06-.03.15s-.06.6-.06.93c.02,17.4.02,34.87,0,52.27,0,.76.11,1.39.29,2.1.02.07.04.14.06.21.15.41.34.81.57,1.18.04.06.08.11.13.17.41.56.84,1.03,1.41,1.46.24.18.49.35.76.51,10.8,6.51,21.58,13.05,32.37,19.59,1.79,1.08,3.58,2.17,5.38,3.26.54.33,1.08.65,1.64.99.86.52,1.67,1.01,2.57,1.54,2.34,1.4,4.76,2.85,7.11,4.27.2.12.45.28.65.39,1.03.6,2.05,1.06,3.18,1.39.05-2.03.06-4.07,0-6.11-.14-4.28-.23-8.73-1.25-13.15v-.02Z"/><path class="i" d="M134.12,50.23c0-.54-.06-1-.16-1.52-4.05,1.79-8.01,3.64-11.82,5.94-2.27,1.37-4.53,2.94-6.28,4.89-1.18,1.32-1.36,2.46-.48,3.92.31.51.78.77,1.06,1.32,1.11,2.18,1.66,3.71.17,6.2-2.77,4.63-8.46,7.91-13.91,7.82-2.65-.05-3.8-1.48-4.44-3.64-.64-2.18.38-4.23,1-6.22.55-1.72.27-2.2-1.56-1.83-1.04.22-2.14.58-3.19.99-5.62,2.2-10.94,5.05-16.2,8.02-.02,0-.05.03-.06.03-.51.27-1.27.71-1.3,1.3v.03c.62,6.59,1.05,13,.63,19.32-.17,2.63-.43,5.2-1.61,7.09-1.36,2.18-3.36,1.8-5.94-.62-.72-.67-1.37-1.59-2.07-2.23-1.89-1.74-3.29-1.93-4.14-.25-.84,1.67-.92,3.88-.46,6.26.64,3.33,1.96,4.5,4.42,4.5,3.77,0,6.37,2.17,8.06,7.55,1.35,4.28,1.73,8.4,1.94,12.44.15,2.67.17,5.29.14,7.89h.07v.15c1.26-.36,2.18-.74,3.33-1.48,6.16-3.92,12.55-7.63,18.83-11.45,10.13-6.16,20.32-12.24,30.42-18.47,2.16-1.33,3.49-3.02,3.51-5.68.09-17.37-.03-34.87.03-52.26h0Z"/><path class="e" d="M140.45,76.17c-.02-8.08.04-16.33.03-24.36,0-6.51-2.51-10.86-8.07-14.18-16.13-9.65-32.32-19.42-48.5-28.97-5.3-3.13-10.13-3.26-15.49-.04-16.48,9.91-33.21,20.14-49.67,30.16-4.43,2.7-6.6,6.44-6.65,11.57-.16,17.12-.16,34.35,0,51.44.05,5.49,2.41,9.42,7.05,12.25,16.52,10.07,33.21,20.13,49.84,29.99,4.94,2.93,9.65,3.01,14.61.07,16.84-9.98,33.63-20.14,50.34-30.41,4.33-2.66,6.42-6.59,6.5-11.7.15-8.53.05-17.26.02-25.81h0ZM21.91,44.42c10.12-6.12,20.29-12.31,30.42-18.43,6.28-3.8,12.67-7.56,18.83-11.44,1.3-.83,2.37-1.27,3.77-1.56.48-.1.77-.1,1.23-.08,1.85.07,3.42.74,5,1.64.17.1.48.29.57.35s.06.03.06.03c5.58,3.28,11.26,6.13,16.52,9.96.02,0,.04.03.07.06.2.16,1.05.81,1.49.88v.02c10.31,6.25,20.66,12.52,30.98,18.75.73.43,1.23.89,1.79,1.48-4.27,1.9-8.47,3.88-12.44,6.37-2.65,1.66-5.31,3.62-7.15,6.07s-2,4.7-.37,7.12c2.26,3.37,1.33,5.24-1.92,7.52-1.85,1.29-4.28,2.44-6.65,2.54-2.06.08-2.94-1-2.86-3,.05-1.19.76-2.48,1.07-3.62,1.01-3.67-.15-5.63-4.18-5.08-3.39.46-6.61,2.06-9.79,3.51-3.83,1.74-7.62,3.93-11.28,6.05-.03.02-.04.04-.06.04h-.02s0,.02-.03.02c0,0,0,0,0,0,0,0,.03,0-.03.02-.08.04-.15.11-.33.17-.18.06.23-.03-.27.1s-2.23.25-2.97-.06c-.06-.03-.26-.11-.32-.14s-.03,0-.11-.06c-.07-.05-.14-.06-.27-.12-7.12-3.34-14.2-6.72-20.69-11.22-.48-.33-.92-.65-1.29-1.03-1.7-1.73-1.14-2.42.97-3.13,5.1-1.69,7.43-4.42,3.53-9.1-2.36-2.83-5.83-4.42-9.42-5.38-.28-.07-.68-.13-.95-.16-3.11-.32-5.75.13-7.84,2.5-.79.89-.85,1.62-1.37,2.63-1.23,2.45-2.64,2.6-5.58,1.93-2.94-.67-6.75-2.29-9.68-3.69-.27-.13-.6-.3-.86-.42.71-.84,1.42-1.46,2.38-2.04h0ZM74.51,139.47c-1.13-.31-2.15-.79-3.18-1.39-.2-.12-.45-.27-.65-.39-2.36-1.42-4.77-2.86-7.11-4.27-.89-.53-1.71-1.02-2.57-1.54-.56-.34-1.1-.66-1.64-.99-1.8-1.09-3.59-2.18-5.38-3.26-10.79-6.54-21.57-13.08-32.37-19.59-.28-.17-.52-.33-.76-.51-.56-.43-1-.9-1.41-1.46-.05-.06-.09-.11-.13-.17-.23-.38-.42-.77-.57-1.18-.03-.07-.05-.14-.06-.21-.18-.72-.29-1.34-.29-2.1,0-17.41,0-34.88,0-52.27,0-.33.03-.72.06-.93.03-.21,0,0,.03-.15,2.79,1.33,5.76,2.53,8.66,3.52,1.43.49,3.29.81,4.59.96,3.42.41,6.29-.56,7.55-3.44,1.26-2.88,2.19-4.09,5.29-3.97,1.9.07,3.71,1.22,5.4,2.32,1.23.8,2.68,1.98,3.23,3.49.73,1.98-.35,2.86-2.25,3.47-.79.26-2.09.47-2.86.83-2.06.94-3.18,2.31-1.81,4.44,1.63,2.54,4,4.11,6.65,5.78,5.91,3.72,12.67,6.89,19.02,9.69.81.36,1.36.58,1.67,1.06.26.4.2.36.26.61h.1c.53,6.67.8,13.18.19,19.54-.06.53-.07,1.13-.23,1.54-.95,2.52-.96,3.16-4.06.16-4.09-3.95-7.83-4.42-9.28.47-.76,2.55-.85,6,.7,9.88,1.58,3.94,4.41,6.22,7.38,6.15,2.74-.06,3.74.83,4.62,4.65,1.02,4.42,1.11,8.87,1.25,13.15.06,2.05.06,4.09,0,6.11v.02ZM134.1,102.5c-.02,2.66-1.35,4.35-3.51,5.68-10.11,6.23-20.29,12.31-30.42,18.47-6.28,3.82-12.67,7.53-18.83,11.45-1.15.73-2.07,1.12-3.33,1.48v-.15h-.07c.03-2.6,0-5.21-.14-7.89-.22-4.05-.6-8.16-1.94-12.44-1.7-5.38-4.3-7.56-8.06-7.55-2.46,0-3.77-1.17-4.42-4.5-.46-2.39-.39-4.59.46-6.26.84-1.68,2.25-1.5,4.14.25.7.64,1.35,1.56,2.07,2.23,2.58,2.41,4.58,2.8,5.94.62,1.18-1.88,1.44-4.45,1.61-7.09.41-6.32-.02-12.72-.63-19.32v-.03c.05-.6.79-1.04,1.3-1.3,0,0,.04-.02.06-.03,5.26-2.97,10.58-5.82,16.2-8.02,1.06-.41,2.16-.78,3.19-.99,1.83-.39,2.11.11,1.56,1.83-.63,1.98-1.65,4.04-1,6.22.64,2.18,1.79,3.61,4.44,3.64,5.45.09,11.13-3.19,13.91-7.82,1.49-2.48.94-4.01-.17-6.2-.28-.55-.74-.82-1.06-1.32-.88-1.45-.71-2.6.48-3.92,1.75-1.95,4.01-3.53,6.28-4.89,3.81-2.29,7.78-4.14,11.82-5.94.09.52.16.98.16,1.52-.05,17.4.06,34.89-.03,52.26h0Z"/></g></g></svg>